<svg xmlns="http://www.w3.org/2000/svg" viewBox="0 0 512 512"><defs><linearGradient id="a" x1="0%" y1="0%" x2="100%" y2="100%"><stop offset="0%" stop-color="#6DD5FA"/><stop offset="100%" stop-color="#2980B9"/></linearGradient></defs><rect width="512" height="512" fill="url(#a)"/><circle cx="190" cy="190" r="90" fill="#FFD700"/><path d="M390 350c0 44-36 80-80 80H170c-44 0-80-36-80-80 0-38 27-70 63-77 5-38 38-68 79-68 29 0 55 16 69 39 7-3 15-5 23-5 35 0 64 29 64 64 0 5-1 10-2 15 49 7 84 44 84 32z" fill="#ffffff" opacity="0.9"/></svg>
